# xmcd CD database file
#
# Track frame offsets:
#	150
#	16477
#	38800
#	56670
#	75120
#	98590
#	119190
#	137172
#	157145
#	167842
#	187392
#
# Disc length: 2802 seconds
#
# Revision: 2
# Processed by: cddbd v1.5.1PL0 Copyright (c) Steve Scherf et al.
# Submitted via: CDex 1.51
#
DISCID=960af00b
DTITLE=大塚愛 - LOVE PUNCH
DYEAR=2004
DGENRE=
TTITLE0=Pretty Voice
TTITLE1=桃ノ花ビラ
TTITLE2=さくらんぼ
TTITLE3=Girly
TTITLE4=雨の中のメロディー
TTITLE5=シャボン玉
TTITLE6=石川大阪友好条約
TTITLE7=片想いダイアル
TTITLE8=ハニー
TTITLE9=甘えんぼ
TTITLE10=Always Together
EXTD=YEAR: 2004
EXTT0=
EXTT1=
EXTT2=
EXTT3=
EXTT4=
EXTT5=
EXTT6=
EXTT7=
EXTT8=
EXTT9=
EXTT10=
PLAYORDER=
